<mxfile host="Electron" agent="Mozilla/5.0 (Windows NT 10.0; Win64; x64) AppleWebKit/537.36 (KHTML, like Gecko) draw.io/24.7.17 Chrome/128.0.6613.36 Electron/32.0.1 Safari/537.36" version="24.7.17">
  <diagram name="Page-1" id="OqqxSs0Jv0ciolQ84YTP">
    <mxGraphModel dx="2172" dy="1784" grid="1" gridSize="10" guides="1" tooltips="1" connect="1" arrows="1" fold="1" page="1" pageScale="1" pageWidth="850" pageHeight="1100" math="0" shadow="0">
      <root>
        <mxCell id="0" />
        <mxCell id="1" parent="0" />
        <mxCell id="6rUYwsKPLpnDdJ5DGvyH-1" value="Course" style="rounded=1;arcSize=10;whiteSpace=wrap;html=1;align=center;" parent="1" vertex="1">
          <mxGeometry x="-800" y="-1040" width="100" height="40" as="geometry" />
        </mxCell>
        <mxCell id="6rUYwsKPLpnDdJ5DGvyH-14" value="RelatedTo" style="shape=rhombus;perimeter=rhombusPerimeter;whiteSpace=wrap;html=1;align=center;" parent="1" vertex="1">
          <mxGeometry x="-660" y="-970" width="120" height="60" as="geometry" />
        </mxCell>
        <mxCell id="6rUYwsKPLpnDdJ5DGvyH-17" value="Video" style="rounded=1;arcSize=10;whiteSpace=wrap;html=1;align=center;" parent="1" vertex="1">
          <mxGeometry x="-455" y="-960" width="100" height="40" as="geometry" />
        </mxCell>
        <mxCell id="twIHh9_OM4yPXy_6sT9O-8" value="RelatedTo" style="shape=rhombus;perimeter=rhombusPerimeter;whiteSpace=wrap;html=1;align=center;" vertex="1" parent="1">
          <mxGeometry x="-655" y="-870" width="110" height="60" as="geometry" />
        </mxCell>
        <mxCell id="twIHh9_OM4yPXy_6sT9O-9" value="ToHave" style="shape=rhombus;perimeter=rhombusPerimeter;whiteSpace=wrap;html=1;align=center;" vertex="1" parent="1">
          <mxGeometry x="-640" y="-770" width="80" height="60" as="geometry" />
        </mxCell>
        <mxCell id="twIHh9_OM4yPXy_6sT9O-10" value="PreRequest" style="rounded=1;arcSize=10;whiteSpace=wrap;html=1;align=center;" vertex="1" parent="1">
          <mxGeometry x="-455" y="-860" width="100" height="40" as="geometry" />
        </mxCell>
        <mxCell id="twIHh9_OM4yPXy_6sT9O-11" value="Category" style="rounded=1;arcSize=10;whiteSpace=wrap;html=1;align=center;" vertex="1" parent="1">
          <mxGeometry x="-455" y="-760" width="100" height="40" as="geometry" />
        </mxCell>
        <mxCell id="twIHh9_OM4yPXy_6sT9O-12" value="CourseUpdateSubscriber" style="shape=ext;margin=3;double=1;whiteSpace=wrap;html=1;align=center;" vertex="1" parent="1">
          <mxGeometry x="-485" y="-660" width="160" height="40" as="geometry" />
        </mxCell>
        <mxCell id="twIHh9_OM4yPXy_6sT9O-13" value="Subscribe" style="shape=rhombus;perimeter=rhombusPerimeter;whiteSpace=wrap;html=1;align=center;" vertex="1" parent="1">
          <mxGeometry x="-660" y="-670" width="120" height="60" as="geometry" />
        </mxCell>
        <mxCell id="twIHh9_OM4yPXy_6sT9O-14" value="CourseEndSubscriber" style="shape=ext;margin=3;double=1;whiteSpace=wrap;html=1;align=center;" vertex="1" parent="1">
          <mxGeometry x="-485" y="-550" width="150" height="40" as="geometry" />
        </mxCell>
        <mxCell id="twIHh9_OM4yPXy_6sT9O-15" value="Subscribe" style="shape=rhombus;perimeter=rhombusPerimeter;whiteSpace=wrap;html=1;align=center;" vertex="1" parent="1">
          <mxGeometry x="-660" y="-560" width="120" height="60" as="geometry" />
        </mxCell>
        <mxCell id="twIHh9_OM4yPXy_6sT9O-16" value="Teach" style="shape=rhombus;perimeter=rhombusPerimeter;whiteSpace=wrap;html=1;align=center;" vertex="1" parent="1">
          <mxGeometry x="-645" y="-450" width="90" height="60" as="geometry" />
        </mxCell>
        <mxCell id="twIHh9_OM4yPXy_6sT9O-17" value="Teacher" style="shape=ext;margin=3;double=1;whiteSpace=wrap;html=1;align=center;" vertex="1" parent="1">
          <mxGeometry x="-460" y="-439.9999999999998" width="100" height="40" as="geometry" />
        </mxCell>
        <mxCell id="twIHh9_OM4yPXy_6sT9O-18" value="" style="endArrow=none;html=1;rounded=0;" edge="1" parent="1" source="6rUYwsKPLpnDdJ5DGvyH-17" target="6rUYwsKPLpnDdJ5DGvyH-14">
          <mxGeometry relative="1" as="geometry">
            <mxPoint x="-820" y="-920" as="sourcePoint" />
            <mxPoint x="-660" y="-920" as="targetPoint" />
          </mxGeometry>
        </mxCell>
        <mxCell id="twIHh9_OM4yPXy_6sT9O-19" value="N" style="resizable=0;html=1;whiteSpace=wrap;align=right;verticalAlign=bottom;" connectable="0" vertex="1" parent="twIHh9_OM4yPXy_6sT9O-18">
          <mxGeometry x="1" relative="1" as="geometry" />
        </mxCell>
        <mxCell id="twIHh9_OM4yPXy_6sT9O-20" value="" style="endArrow=none;html=1;rounded=0;" edge="1" parent="1" source="6rUYwsKPLpnDdJ5DGvyH-1" target="6rUYwsKPLpnDdJ5DGvyH-14">
          <mxGeometry relative="1" as="geometry">
            <mxPoint x="-445" y="-930" as="sourcePoint" />
            <mxPoint x="-530" y="-930" as="targetPoint" />
            <Array as="points">
              <mxPoint x="-750" y="-940" />
            </Array>
          </mxGeometry>
        </mxCell>
        <mxCell id="twIHh9_OM4yPXy_6sT9O-21" value="1" style="resizable=0;html=1;whiteSpace=wrap;align=right;verticalAlign=bottom;" connectable="0" vertex="1" parent="twIHh9_OM4yPXy_6sT9O-20">
          <mxGeometry x="1" relative="1" as="geometry" />
        </mxCell>
        <mxCell id="twIHh9_OM4yPXy_6sT9O-22" value="" style="endArrow=none;html=1;rounded=0;" edge="1" parent="1" source="6rUYwsKPLpnDdJ5DGvyH-1" target="twIHh9_OM4yPXy_6sT9O-8">
          <mxGeometry relative="1" as="geometry">
            <mxPoint x="-702" y="-990" as="sourcePoint" />
            <mxPoint x="-619" y="-945" as="targetPoint" />
            <Array as="points">
              <mxPoint x="-750" y="-840" />
            </Array>
          </mxGeometry>
        </mxCell>
        <mxCell id="twIHh9_OM4yPXy_6sT9O-23" value="1" style="resizable=0;html=1;whiteSpace=wrap;align=right;verticalAlign=bottom;" connectable="0" vertex="1" parent="twIHh9_OM4yPXy_6sT9O-22">
          <mxGeometry x="1" relative="1" as="geometry" />
        </mxCell>
        <mxCell id="twIHh9_OM4yPXy_6sT9O-24" value="" style="endArrow=none;html=1;rounded=0;" edge="1" parent="1" source="twIHh9_OM4yPXy_6sT9O-11" target="twIHh9_OM4yPXy_6sT9O-9">
          <mxGeometry relative="1" as="geometry">
            <mxPoint x="-723" y="-990" as="sourcePoint" />
            <mxPoint x="-607" y="-851" as="targetPoint" />
          </mxGeometry>
        </mxCell>
        <mxCell id="twIHh9_OM4yPXy_6sT9O-25" value="1" style="resizable=0;html=1;whiteSpace=wrap;align=right;verticalAlign=bottom;" connectable="0" vertex="1" parent="twIHh9_OM4yPXy_6sT9O-24">
          <mxGeometry x="1" relative="1" as="geometry">
            <mxPoint x="7" as="offset" />
          </mxGeometry>
        </mxCell>
        <mxCell id="twIHh9_OM4yPXy_6sT9O-26" value="" style="endArrow=none;html=1;rounded=0;" edge="1" parent="1" source="6rUYwsKPLpnDdJ5DGvyH-1" target="twIHh9_OM4yPXy_6sT9O-13">
          <mxGeometry relative="1" as="geometry">
            <mxPoint x="-723" y="-990" as="sourcePoint" />
            <mxPoint x="-607" y="-851" as="targetPoint" />
            <Array as="points">
              <mxPoint x="-750" y="-640" />
            </Array>
          </mxGeometry>
        </mxCell>
        <mxCell id="twIHh9_OM4yPXy_6sT9O-27" value="1" style="resizable=0;html=1;whiteSpace=wrap;align=right;verticalAlign=bottom;" connectable="0" vertex="1" parent="twIHh9_OM4yPXy_6sT9O-26">
          <mxGeometry x="1" relative="1" as="geometry" />
        </mxCell>
        <mxCell id="twIHh9_OM4yPXy_6sT9O-28" value="" style="endArrow=none;html=1;rounded=0;" edge="1" parent="1" source="6rUYwsKPLpnDdJ5DGvyH-1" target="twIHh9_OM4yPXy_6sT9O-15">
          <mxGeometry relative="1" as="geometry">
            <mxPoint x="-732" y="-990" as="sourcePoint" />
            <mxPoint x="-600" y="-655" as="targetPoint" />
            <Array as="points">
              <mxPoint x="-750" y="-530" />
            </Array>
          </mxGeometry>
        </mxCell>
        <mxCell id="twIHh9_OM4yPXy_6sT9O-29" value="1" style="resizable=0;html=1;whiteSpace=wrap;align=right;verticalAlign=bottom;" connectable="0" vertex="1" parent="twIHh9_OM4yPXy_6sT9O-28">
          <mxGeometry x="1" relative="1" as="geometry" />
        </mxCell>
        <mxCell id="twIHh9_OM4yPXy_6sT9O-32" value="" style="endArrow=none;html=1;rounded=0;" edge="1" parent="1" source="twIHh9_OM4yPXy_6sT9O-10" target="twIHh9_OM4yPXy_6sT9O-8">
          <mxGeometry relative="1" as="geometry">
            <mxPoint x="-710" y="-750" as="sourcePoint" />
            <mxPoint x="-550" y="-750" as="targetPoint" />
          </mxGeometry>
        </mxCell>
        <mxCell id="twIHh9_OM4yPXy_6sT9O-33" value="N" style="resizable=0;html=1;whiteSpace=wrap;align=right;verticalAlign=bottom;" connectable="0" vertex="1" parent="twIHh9_OM4yPXy_6sT9O-32">
          <mxGeometry x="1" relative="1" as="geometry">
            <mxPoint x="7" as="offset" />
          </mxGeometry>
        </mxCell>
        <mxCell id="twIHh9_OM4yPXy_6sT9O-34" value="" style="endArrow=none;html=1;rounded=0;" edge="1" parent="1" source="6rUYwsKPLpnDdJ5DGvyH-1" target="twIHh9_OM4yPXy_6sT9O-9">
          <mxGeometry relative="1" as="geometry">
            <mxPoint x="-820" y="-740" as="sourcePoint" />
            <mxPoint x="-660" y="-740" as="targetPoint" />
            <Array as="points">
              <mxPoint x="-750" y="-740" />
            </Array>
          </mxGeometry>
        </mxCell>
        <mxCell id="twIHh9_OM4yPXy_6sT9O-35" value="N" style="resizable=0;html=1;whiteSpace=wrap;align=right;verticalAlign=bottom;" connectable="0" vertex="1" parent="twIHh9_OM4yPXy_6sT9O-34">
          <mxGeometry x="1" relative="1" as="geometry" />
        </mxCell>
        <mxCell id="twIHh9_OM4yPXy_6sT9O-36" value="" style="shape=link;html=1;rounded=0;" edge="1" parent="1" target="twIHh9_OM4yPXy_6sT9O-16">
          <mxGeometry relative="1" as="geometry">
            <mxPoint x="-750" y="-530" as="sourcePoint" />
            <mxPoint x="-620" y="-420" as="targetPoint" />
            <Array as="points">
              <mxPoint x="-750" y="-420" />
            </Array>
          </mxGeometry>
        </mxCell>
        <mxCell id="twIHh9_OM4yPXy_6sT9O-37" value="1" style="resizable=0;html=1;whiteSpace=wrap;align=right;verticalAlign=bottom;" connectable="0" vertex="1" parent="twIHh9_OM4yPXy_6sT9O-36">
          <mxGeometry x="1" relative="1" as="geometry" />
        </mxCell>
        <mxCell id="twIHh9_OM4yPXy_6sT9O-38" value="" style="shape=link;html=1;rounded=0;" edge="1" parent="1" source="twIHh9_OM4yPXy_6sT9O-17" target="twIHh9_OM4yPXy_6sT9O-16">
          <mxGeometry relative="1" as="geometry">
            <mxPoint x="-740" y="-520" as="sourcePoint" />
            <mxPoint x="-635" y="-410" as="targetPoint" />
            <Array as="points" />
          </mxGeometry>
        </mxCell>
        <mxCell id="twIHh9_OM4yPXy_6sT9O-39" value="1" style="resizable=0;html=1;whiteSpace=wrap;align=right;verticalAlign=bottom;" connectable="0" vertex="1" parent="twIHh9_OM4yPXy_6sT9O-38">
          <mxGeometry x="1" relative="1" as="geometry" />
        </mxCell>
        <mxCell id="twIHh9_OM4yPXy_6sT9O-40" value="" style="endArrow=none;html=1;rounded=0;" edge="1" parent="1" source="twIHh9_OM4yPXy_6sT9O-12" target="twIHh9_OM4yPXy_6sT9O-13">
          <mxGeometry relative="1" as="geometry">
            <mxPoint x="-800" y="-590" as="sourcePoint" />
            <mxPoint x="-640" y="-590" as="targetPoint" />
          </mxGeometry>
        </mxCell>
        <mxCell id="twIHh9_OM4yPXy_6sT9O-41" value="N" style="resizable=0;html=1;whiteSpace=wrap;align=right;verticalAlign=bottom;" connectable="0" vertex="1" parent="twIHh9_OM4yPXy_6sT9O-40">
          <mxGeometry x="1" relative="1" as="geometry" />
        </mxCell>
        <mxCell id="twIHh9_OM4yPXy_6sT9O-42" value="" style="endArrow=none;html=1;rounded=0;" edge="1" parent="1" source="twIHh9_OM4yPXy_6sT9O-14" target="twIHh9_OM4yPXy_6sT9O-15">
          <mxGeometry relative="1" as="geometry">
            <mxPoint x="-475" y="-630" as="sourcePoint" />
            <mxPoint x="-530" y="-630" as="targetPoint" />
          </mxGeometry>
        </mxCell>
        <mxCell id="twIHh9_OM4yPXy_6sT9O-43" value="N" style="resizable=0;html=1;whiteSpace=wrap;align=right;verticalAlign=bottom;" connectable="0" vertex="1" parent="twIHh9_OM4yPXy_6sT9O-42">
          <mxGeometry x="1" relative="1" as="geometry" />
        </mxCell>
      </root>
    </mxGraphModel>
  </diagram>
</mxfile>
